# xmcd CD database file
#
# Track frame offsets:
#	183
#	11040
#	25958
#	42668
#	59040
#	73533
#	82130
#	94900
#	108385
#	118890
#	130443
#	144235
#	153988
#	164715
#	176210
#	189093
#	200183
#	217978
#	228113
#	243538
#
# Disc length: 3432 seconds
#
# Revision: 2
# Processed by: cddbd v1.5.1PL0 Copyright (c) Steve Scherf et al.
# Submitted via: CDex 1.50beta10
#
DISCID=2f0d6614
DTITLE=Slim Whitman - Love Songs
DYEAR=1994
DGENRE=Country
TTITLE0=Rose Marie
TTITLE1=Indian Love Call
TTITLE2=Let Me Call You Sweetheart
TTITLE3=Somewhere My Love (Lara's Theme From "Dr Zhivago")
TTITLE4=My Elusive Dreams
TTITLE5=When You Were Sweet Sixteen
TTITLE6=Love Song Of The Waterfall
TTITLE7=I'll Take You Home Again Kathleen
TTITLE8=Have I Told You Lately That I Love You
TTITLE9=Happy Anniversary
TTITLE10=Beautiful Dreamer
TTITLE11=When You Were A Tulip And I Wore A Big Red Rose
TTITLE12=Serenade
TTITLE13=Roses Are Red (My Love)
TTITLE14=Girl Of My Dreams
TTITLE15=Edelweiss
TTITLE16=Oh My Darling' (I Love You)
TTITLE17=The Twelfth Of Never
TTITLE18=Can't Help Falling In Love
TTITLE19=You Are My Sunshine
EXTD=YEAR: 1994
EXTT0=
EXTT1=
EXTT2=
EXTT3=
EXTT4=
EXTT5=
EXTT6=
EXTT7=
EXTT8=
EXTT9=
EXTT10=
EXTT11=
EXTT12=
EXTT13=
EXTT14=
EXTT15=
EXTT16=
EXTT17=
EXTT18=
EXTT19=
PLAYORDER=
